<svg id="smooth" enable-background="new 0 0 300 300" height="512" viewBox="0 0 300 300" width="512" xmlns="http://www.w3.org/2000/svg" xmlns:xlink="http://www.w3.org/1999/xlink"><linearGradient id="SVGID_1_" gradientUnits="userSpaceOnUse" x1="62.329" x2="249.003" y1="256.026" y2="69.352"><stop offset="0" stop-color="#107eff"/><stop offset="1" stop-color="#8f16ff"/></linearGradient><g><path d="m78.492 133.516c6.617 0 12-5.383 12-12s-5.383-12-12-12-12 5.383-12 12 5.383 12 12 12zm0-16c2.205 0 4 1.793 4 4s-1.795 4-4 4-4-1.793-4-4 1.795-4 4-4zm36-4c0-2.209 1.791-4 4-4s4 1.791 4 4-1.791 4-4 4-4-1.791-4-4zm120 52c0 2.209-1.791 4-4 4s-4-1.791-4-4 1.791-4 4-4 4 1.791 4 4zm-112.484-85.172 2.828-2.828-2.828-2.828c-1.562-1.562-1.562-4.094 0-5.656s4.094-1.562 5.656 0l2.828 2.828 2.828-2.828c1.562-1.562 4.094-1.562 5.656 0s1.562 4.094 0 5.656l-2.828 2.828 2.828 2.828c1.562 1.562 1.562 4.094 0 5.656-.781.781-1.805 1.172-2.828 1.172s-2.047-.391-2.828-1.172l-2.828-2.828-2.828 2.828c-.781.781-1.805 1.172-2.828 1.172s-2.047-.391-2.828-1.172c-1.562-1.562-1.562-4.094 0-5.656zm84.484 129.172v-12c0-2.211 1.791-4 4-4s4 1.789 4 4v12c0 2.211-1.791 4-4 4s-4-1.789-4-4zm8 16v12c0 2.211-1.791 4-4 4s-4-1.789-4-4v-12c0-2.211 1.791-4 4-4s4 1.789 4 4zm-8-8c0 2.211-1.791 4-4 4h-12c-2.209 0-4-1.789-4-4s1.791-4 4-4h12c2.209 0 4 1.789 4 4zm28 0c0 2.211-1.791 4-4 4h-12c-2.209 0-4-1.789-4-4s1.791-4 4-4h12c2.209 0 4 1.789 4 4zm5.338-157.336c-5.289-5.289-12.32-8.203-19.799-8.203s-14.51 2.914-19.799 8.203l-135.763 135.761c-.337.336-.581.742-.778 1.172-.053.116-.097.228-.139.348-.041.115-.106.221-.135.34l-11.314 45.254c-.34 1.363.059 2.805 1.053 3.797.76.758 1.781 1.172 2.828 1.172.322 0 .648-.039.971-.121l45.254-11.312c.117-.029.219-.093.332-.133.124-.042.239-.088.359-.143.427-.197.832-.44 1.167-.775l135.763-135.767c10.916-10.914 10.916-28.679 0-39.593zm-138.593 166.875-11.313-11.314 11.397-11.397c1.562-1.562 1.562-4.094 0-5.656s-4.094-1.562-5.656 0l-11.397 11.397-11.313-11.314 22.744-22.744c8.027 6.911 15.838 8.923 26.124 6.868 10.077-2.001 16.462 2.693 18.607 4.967zm19.017-52.004c-7.772 1.548-12.933.354-18.896-4.684l16.968-16.968c8.026 6.909 15.835 8.931 26.124 6.866 10.084-2.007 16.463 2.688 18.609 4.967l-16.984 16.984c-4.167-4.342-13.079-9.728-25.821-7.165zm22.627-22.629c-7.762 1.545-12.929.353-18.896-4.682l16.969-16.97c8.03 6.912 15.841 8.931 26.122 6.866 10.077-2.007 16.46 2.688 18.609 4.969l-16.985 16.986c-4.171-4.335-13.096-9.711-25.819-7.169zm22.625-22.629c-7.758 1.552-12.926.36-18.894-4.681l16.968-16.968c8.03 6.912 15.844 8.929 26.123 6.867 10.092-2.007 16.468 2.69 18.61 4.966l-16.986 16.985c-4.168-4.329-13.089-9.699-25.821-7.169zm22.629-22.625c-7.761 1.545-12.93.358-18.897-4.681l16.97-16.97c8.029 6.909 15.836 8.935 26.124 6.866 10.085-2.008 16.465 2.692 18.609 4.968l-16.985 16.984c-4.169-4.339-13.088-9.718-25.821-7.167zm48.207-15.707c-4.272-4.288-13.102-9.412-25.58-6.922-7.761 1.552-12.927.36-18.896-4.681l14.022-14.022c3.777-3.777 8.801-5.859 14.143-5.859s10.365 2.082 14.143 5.859c6.971 6.971 7.662 17.826 2.168 25.625z" fill="url(#SVGID_1_)"/></g></svg>