<svg height="512" viewBox="0 0 512 512" width="512" xmlns="http://www.w3.org/2000/svg" xmlns:xlink="http://www.w3.org/1999/xlink"><linearGradient id="New_Gradient_Swatch_2" gradientUnits="userSpaceOnUse" x1="351.522" x2="351.522" y1="30.65" y2="383.522"><stop offset="0" stop-color="#fc5c7d"/><stop offset=".129" stop-color="#f35e85"/><stop offset=".343" stop-color="#d9659b"/><stop offset=".616" stop-color="#b070bf"/><stop offset=".934" stop-color="#777ff0"/><stop offset="1" stop-color="#6a82fb"/></linearGradient><linearGradient id="New_Gradient_Swatch_2-2" x1="256" x2="256" xlink:href="#New_Gradient_Swatch_2" y1="30.65" y2="383.522"/><linearGradient id="New_Gradient_Swatch_2-3" x1="416" x2="416" xlink:href="#New_Gradient_Swatch_2" y1="30.65" y2="383.522"/><linearGradient id="New_Gradient_Swatch_2-4" x1="112" x2="112" xlink:href="#New_Gradient_Swatch_2" y1="30.65" y2="383.522"/><linearGradient id="New_Gradient_Swatch_2-5" x1="144" x2="144" xlink:href="#New_Gradient_Swatch_2" y1="30.65" y2="383.522"/><linearGradient id="New_Gradient_Swatch_2-6" x1="176" x2="176" xlink:href="#New_Gradient_Swatch_2" y1="30.65" y2="383.522"/><linearGradient id="New_Gradient_Swatch_2-7" x1="196" x2="196" xlink:href="#New_Gradient_Swatch_2" y1="30.65" y2="383.522"/><linearGradient id="New_Gradient_Swatch_2-8" x1="136" x2="136" xlink:href="#New_Gradient_Swatch_2" y1="30.65" y2="383.522"/><linearGradient id="New_Gradient_Swatch_2-9" x1="216" x2="216" xlink:href="#New_Gradient_Swatch_2" y1="30.65" y2="383.522"/><linearGradient id="New_Gradient_Swatch_2-10" x1="180" x2="180" xlink:href="#New_Gradient_Swatch_2" y1="30.65" y2="383.522"/><linearGradient id="New_Gradient_Swatch_2-12" x1="192.286" x2="192.286" xlink:href="#New_Gradient_Swatch_2" y1="30.65" y2="383.522"/><linearGradient id="New_Gradient_Swatch_2-13" x1="280" x2="280" xlink:href="#New_Gradient_Swatch_2" y1="30.65" y2="383.522"/><linearGradient id="New_Gradient_Swatch_2-14" x1="184" x2="184" xlink:href="#New_Gradient_Swatch_2" y1="30.65" y2="383.522"/><linearGradient id="New_Gradient_Swatch_2-15" x1="296" x2="296" xlink:href="#New_Gradient_Swatch_2" y1="30.65" y2="383.522"/><g id="GD001"><path d="m296.246 337.079 11.95 19.214a8 8 0 0 0 11.019 2.567l19.214-11.95a8 8 0 0 0 3.565-4.976l65.376-280.483a24 24 0 0 0 -46.747-10.9l-65.375 280.486a8 8 0 0 0 .998 6.042zm84.646-232.512-15.583-3.632 3.632-15.583 15.583 3.632zm-1.121-55.357a8 8 0 0 1 12.017 8.609l-3.632 15.581-15.583-3.63 3.632-15.582a7.949 7.949 0 0 1 3.566-4.978zm-18.094 67.307 15.583 3.632-50.1 214.925-9.606 5.975-5.976-9.607z" fill="url(#New_Gradient_Swatch_2)"/><path d="m488 408h-16v-272a32.036 32.036 0 0 0 -32-32h-32v16h32a16.019 16.019 0 0 1 16 16v272h-104a7.994 7.994 0 0 0 -3.578.845l-14.311 7.155h-156.222l-14.311-7.155a7.994 7.994 0 0 0 -3.578-.845h-104v-272a16.019 16.019 0 0 1 16-16h256v-16h-256a32.036 32.036 0 0 0 -32 32v272h-16a8 8 0 0 0 -8 8v16a32.036 32.036 0 0 0 32 32h416a32.036 32.036 0 0 0 32-32v-16a8 8 0 0 0 -8-8zm-8 24a16.019 16.019 0 0 1 -16 16h-416a16.019 16.019 0 0 1 -16-16v-8h126.111l14.311 7.155a7.994 7.994 0 0 0 3.578.845h160a7.994 7.994 0 0 0 3.578-.845l14.311-7.155h126.111z" fill="url(#New_Gradient_Swatch_2-2)"/><path d="m440 392v-248a8 8 0 0 0 -8-8h-32v16h24v48h-32v16h32v176z" fill="url(#New_Gradient_Swatch_2-3)"/><path d="m104 168h16v16h-16z" fill="url(#New_Gradient_Swatch_2-4)"/><path d="m136 168h16v16h-16z" fill="url(#New_Gradient_Swatch_2-5)"/><path d="m168 168h16v16h-16z" fill="url(#New_Gradient_Swatch_2-6)"/><path d="m304 200h-216v-48h232v-16h-240a8 8 0 0 0 -8 8v248h16v-176h216z" fill="url(#New_Gradient_Swatch_2-7)"/><path d="m128 240h16v16h-16z" fill="url(#New_Gradient_Swatch_2-8)"/><path d="m160 240h112v16h-112z" fill="url(#New_Gradient_Swatch_2-9)"/><path d="m112 272h136v16h-136z" fill="url(#New_Gradient_Swatch_2-10)"/><path d="m112 304h136v16h-136z" fill="url(#New_Gradient_Swatch_2-10)"/><path d="m152.812 355.512 4.993 9.987a14 14 0 0 0 20.288 5.387l12.887-8.592 9.605 9.605a13.907 13.907 0 0 0 9.9 4.1h45.515v-15.999h-44.687l-10.177-10.179a14.04 14.04 0 0 0 -17.666-1.749l-12.37 8.244-5.972-11.944a14 14 0 0 0 -25.521 1.063l-11.038 27.594 14.856 5.942z" fill="url(#New_Gradient_Swatch_2-12)"/><path d="m272 360h16v16h-16z" fill="url(#New_Gradient_Swatch_2-13)"/><path d="m96 72h176v16h-176z" fill="url(#New_Gradient_Swatch_2-14)"/><path d="m288 72h16v16h-16z" fill="url(#New_Gradient_Swatch_2-15)"/></g></svg>